<svg width="38" height="32" viewBox="0 0 38 32" fill="none" xmlns="http://www.w3.org/2000/svg">
<path d="M9.40002 2.28571H11.75V4.57142H9.40002V2.28571Z" fill="#040404"/>
<path d="M7.04999 4.57141H9.39999V6.85713H7.04999V4.57141Z" fill="#040404"/>
<path d="M7.04999 16H9.39999V18.2857H7.04999V16Z" fill="#040404"/>
<path d="M9.40002 27.4286H11.75V29.7143H9.40002V27.4286Z" fill="#040404"/>
<path d="M7.04999 25.1429H9.39999V27.4286H7.04999V25.1429Z" fill="#040404"/>
<path d="M4.70001 18.2857H7.05001V25.1428H4.70001V18.2857Z" fill="#040404"/>
<path d="M0 9.14288H2.35V11.4286H0V9.14288Z" fill="#040404"/>
<path d="M2.34998 11.4286H4.69998V13.7143H2.34998V11.4286Z" fill="#040404"/>
<path d="M4.70001 13.7143H11.75V16H4.70001V13.7143Z" fill="#040404"/>
<path d="M2.34998 6.85712H7.04998V9.14283H2.34998C2.34998 8.2502 2.34998 7.74974 2.34998 6.85712Z" fill="#040404"/>
<path d="M16.45 0H18.8V2.28571H16.45V0Z" fill="#040404"/>
<path d="M18.8 0H21.15V2.28571H18.8V0Z" fill="#040404"/>
<path d="M21.15 2.28571H23.5V4.57142H21.15V2.28571Z" fill="#040404"/>
<path d="M21.15 2.28571H23.5V4.57142H21.15V2.28571Z" fill="#040404"/>
<path d="M23.5 4.57141H25.85V6.85713H23.5V4.57141Z" fill="#040404"/>
<path d="M14.1 0H16.45V2.28571H14.1V0Z" fill="#040404"/>
<path d="M11.75 0H14.1V2.28571H11.75V0Z" fill="#040404"/>
<path d="M23.5 6.85712H25.85V9.14283H23.5V6.85712Z" fill="#040404"/>
<path d="M23.5 6.85712H25.85V9.14283H23.5V6.85712Z" fill="#040404"/>
<path d="M23.5 9.14288H25.85V11.4286H23.5V9.14288Z" fill="#040404"/>
<path d="M18.8 13.7143H21.15V16H18.8V13.7143Z" fill="#040404"/>
<path d="M14.1 6.85712H16.45V9.14283H14.1V6.85712Z" fill="#040404"/>
<path d="M16.45 18.2857H18.8V20.5714H16.45V18.2857Z" fill="#040404"/>
<path d="M18.8 20.5714H21.15V22.8571H18.8V20.5714Z" fill="#040404"/>
<path d="M18.8 22.8571H21.15V25.1428H18.8V22.8571Z" fill="#040404"/>
<path d="M21.15 22.8571H23.5V25.1428H21.15V22.8571Z" fill="#040404"/>
<path d="M23.5 22.8571H25.85V25.1428H23.5V22.8571Z" fill="#040404"/>
<path d="M25.85 20.5714H28.2V22.8571H25.85V20.5714Z" fill="#040404"/>
<path d="M28.2 18.2857H30.55V20.5714H28.2V18.2857Z" fill="#040404"/>
<path d="M28.2 13.7143H30.55V16H28.2V13.7143Z" fill="#040404"/>
<path d="M30.55 13.7143H32.9V16H30.55V13.7143Z" fill="#040404"/>
<path d="M35.25 13.7143H37.6V22.8572H35.25V13.7143Z" fill="#040404"/>
<path d="M32.9 11.4286H35.25V13.7143H32.9V11.4286Z" fill="#040404"/>
<path d="M32.9 22.8571H35.25V25.1428H32.9V22.8571Z" fill="#040404"/>
<path d="M30.55 25.1429H32.9V27.4286H30.55V25.1429Z" fill="#040404"/>
<path d="M28.2 27.4286H30.55V29.7143H28.2V27.4286Z" fill="#040404"/>
<path d="M11.75 29.7143H28.2V32H11.75V29.7143Z" fill="#040404"/>
<path d="M28.2 13.7143H30.55V16H28.2V13.7143Z" fill="#040404"/>
<path d="M28.2 13.7143H30.55V16H28.2V13.7143Z" fill="#040404"/>
<path d="M21.15 11.4286H28.2V13.7143H21.15V11.4286Z" fill="#040404"/>
<rect x="11.75" y="2.28571" width="9.4" height="2.28571" fill="#FFE711"/>
<rect x="11.75" y="2.28571" width="9.4" height="2.28571" fill="#FFE711"/>
<rect x="11.75" y="6.85712" width="2.35" height="2.28571" fill="#FFE711"/>
<rect x="11.75" y="9.14288" width="11.75" height="2.28571" fill="#FFE711"/>
<rect x="14.1" y="11.4286" width="7.05" height="2.28571" fill="#FFE711"/>
<rect x="4.70001" y="11.4286" width="9.4" height="2.28571" fill="#FF620A"/>
<rect x="2.34998" y="9.14288" width="9.4" height="2.28571" fill="#FF620A"/>
<rect x="7.04999" y="6.85712" width="4.7" height="2.28571" fill="#FF620A"/>
<rect x="21.15" y="13.7143" width="7.05" height="2.28571" fill="#FFE711"/>
<rect x="32.9" y="13.7143" width="2.35" height="2.28571" fill="#FFE711"/>
<rect x="30.55" y="18.2857" width="4.7" height="2.28571" fill="#FFE711"/>
<rect x="28.2" y="20.5714" width="7.05" height="2.28571" fill="#FFE711"/>
<rect x="18.8" y="18.2857" width="9.4" height="2.28571" fill="#FFE711"/>
<rect x="21.15" y="20.5714" width="4.7" height="2.28571" fill="#FFE711"/>
<rect x="25.85" y="22.8571" width="7.05" height="2.28571" fill="#FFE711"/>
<rect x="9.40002" y="25.1429" width="21.15" height="2.28571" fill="#FFE711"/>
<rect x="11.75" y="27.4286" width="16.45" height="2.28571" fill="#FFE711"/>
<rect x="11.75" y="27.4286" width="16.45" height="2.28571" fill="#FFE711"/>
<rect x="7.04999" y="22.8571" width="11.75" height="2.28571" fill="#FFE711"/>
<rect x="7.04999" y="20.5714" width="11.75" height="2.28571" fill="#FFE711"/>
<rect x="7.04999" y="18.2857" width="9.4" height="2.28571" fill="#FFE711"/>
<rect x="11.75" y="13.7143" width="7.05" height="2.28571" fill="#FFE711"/>
<rect x="9.40002" y="16" width="25.85" height="2.28571" fill="#FFE711"/>
<rect x="11.75" y="13.7143" width="7.05" height="2.28571" fill="#FFE711"/>
<rect x="11.75" y="13.7143" width="7.05" height="2.28571" fill="#FFE711"/>
<rect x="16.45" y="6.85712" width="7.05" height="2.28571" fill="#FFE711"/>
<rect x="9.40002" y="4.57141" width="14.1" height="2.28571" fill="#FFE711"/>
<rect x="15.51" y="10.0571" width="2.35" height="2.28571" fill="#B28DCF"/>
<rect x="17.86" y="10.0571" width="2.35" height="2.28571" fill="#B28DCF"/>
</svg>
